<svg width="35" height="35" viewBox="0 0 35 35" fill="none" xmlns="http://www.w3.org/2000/svg">
<path d="M23.7062 15.452H24.4582C23.8909 13.018 21.9815 11.1028 19.5479 10.5312V11.2884C21.5733 11.8312 23.1691 13.4269 23.7062 15.452Z" fill="#B6B6B6"/>
<path d="M23.6761 18.5488C23.1145 20.5263 21.5389 22.0812 19.5479 22.6144V23.3711C21.9486 22.8075 23.8423 20.9367 24.4367 18.5488H23.6761Z" fill="#B6B6B6"/>
<path d="M12.3949 18.5488H11.6328C12.223 20.9109 14.0851 22.7681 16.4515 23.3535V22.5958C14.4934 22.0447 12.9492 20.5027 12.3949 18.5488Z" fill="#B6B6B6"/>
<path d="M11.6113 15.4514H12.3648C12.8948 13.4499 14.4604 11.8663 16.4515 11.3063V10.5488C14.0536 11.1415 12.1743 13.0423 11.6113 15.4514Z" fill="#B6B6B6"/>
<path d="M18.7481 10.0402V11.5379H17.2512V10.0402H18.7481ZM19.5481 9.24023H16.4512V12.3379H19.5481V9.24023Z" fill="#B6B6B6"/>
<path d="M18.7481 22.4621V23.9598H17.2512V22.4621H18.7481ZM19.5481 21.6621H16.4512V24.7598H19.5481V21.6621Z" fill="#B6B6B6"/>
<path d="M24.959 16.2512V17.7485H23.4621V16.2512H24.959ZM25.759 15.4512H22.6621V18.5485H25.759V15.4512Z" fill="#B6B6B6"/>
<path d="M12.5371 16.2512V17.7485H11.0402V16.2512H12.5371ZM13.3371 15.4512H10.2402V18.5485H13.3371V15.4512Z" fill="#B6B6B6"/>
</svg>
