<svg width="16" height="16" viewBox="0 0 16 16" fill="none" xmlns="http://www.w3.org/2000/svg">
<path fill-rule="evenodd" clip-rule="evenodd" d="M6 1H1L1 6H6V1ZM1 0C0.447715 0 0 0.447715 0 1V6C0 6.55228 0.447715 7 1 7H6C6.55228 7 7 6.55228 7 6V1C7 0.447715 6.55228 0 6 0H1Z" fill="#AFC476"/>
<path fill-rule="evenodd" clip-rule="evenodd" d="M6 10H1L1 15H6V10ZM1 9C0.447715 9 0 9.44772 0 10V15C0 15.5523 0.447715 16 1 16H6C6.55228 16 7 15.5523 7 15V10C7 9.44772 6.55228 9 6 9H1Z" fill="#AFC476"/>
<path fill-rule="evenodd" clip-rule="evenodd" d="M15 10H10V15H15V10ZM10 9C9.44772 9 9 9.44772 9 10V15C9 15.5523 9.44772 16 10 16H15C15.5523 16 16 15.5523 16 15V10C16 9.44772 15.5523 9 15 9H10Z" fill="#AFC476"/>
<path d="M9 5.5C9 5.22386 9.22386 5 9.5 5H15.5C15.7761 5 16 5.22386 16 5.5C16 5.77614 15.7761 6 15.5 6H9.5C9.22386 6 9 5.77614 9 5.5Z" fill="#AFC476"/>
<path d="M9 1.5C9 1.22386 9.22386 1 9.5 1H15.5C15.7761 1 16 1.22386 16 1.5C16 1.77614 15.7761 2 15.5 2H9.5C9.22386 2 9 1.77614 9 1.5Z" fill="#AFC476"/>
</svg>
