<svg width="35" height="35" viewBox="0 0 35 35" fill="none" xmlns="http://www.w3.org/2000/svg">
<path fill-rule="evenodd" clip-rule="evenodd" d="M15 11H10L10 16H15V11ZM10 10C9.44772 10 9 10.4477 9 11V16C9 16.5523 9.44772 17 10 17H15C15.5523 17 16 16.5523 16 16V11C16 10.4477 15.5523 10 15 10H10Z" fill="#B4B4B4"/>
<path fill-rule="evenodd" clip-rule="evenodd" d="M15 20H10L10 25H15V20ZM10 19C9.44772 19 9 19.4477 9 20V25C9 25.5523 9.44772 26 10 26H15C15.5523 26 16 25.5523 16 25V20C16 19.4477 15.5523 19 15 19H10Z" fill="#B4B4B4"/>
<path fill-rule="evenodd" clip-rule="evenodd" d="M24 20H19V25H24V20ZM19 19C18.4477 19 18 19.4477 18 20V25C18 25.5523 18.4477 26 19 26H24C24.5523 26 25 25.5523 25 25V20C25 19.4477 24.5523 19 24 19H19Z" fill="#B4B4B4"/>
<path d="M18 15.5C18 15.2239 18.2239 15 18.5 15H24.5C24.7761 15 25 15.2239 25 15.5C25 15.7761 24.7761 16 24.5 16H18.5C18.2239 16 18 15.7761 18 15.5Z" fill="#B4B4B4"/>
<path d="M18 11.5C18 11.2239 18.2239 11 18.5 11H24.5C24.7761 11 25 11.2239 25 11.5C25 11.7761 24.7761 12 24.5 12H18.5C18.2239 12 18 11.7761 18 11.5Z" fill="#B4B4B4"/>
</svg>
